<svg xmlns="http://www.w3.org/2000/svg" style="display:none">

  <symbol id="icon-claude" viewBox="0 -.01 39.5 39.53">
    <path d="m7.75 26.27 7.77-4.36.13-.38-.13-.21h-.38l-1.3-.08-4.44-.12-3.85-.16-3.73-.2-.94-.2-.88-1.16.09-.58.79-.53 1.13.1 2.5.17 3.75.26 2.72.16 4.03.42h.64l.09-.26-.22-.16-.17-.16-3.88-2.63-4.2-2.78-2.2-1.6-1.19-.81-.6-.76-.26-1.66 1.08-1.19 1.45.1.37.1 1.47 1.13 3.14 2.43 4.1 3.02.6.5.24-.17.03-.12-.27-.45-2.23-4.03-2.38-4.1-1.06-1.7-.28-1.02c-.1-.42-.17-.77-.17-1.2l1.23-1.67.68-.22 1.64.22.69.6 1.02 2.33 1.65 3.67 2.56 4.99.75 1.48.4 1.37.15.42h.26v-.24l.21-2.81.39-3.45.38-4.44.13-1.25.62-1.5 1.23-.81.96.46.79 1.13-.11.73-.47 3.05-.92 4.78-.6 3.2h.35l.4-.4 1.62-2.15 2.72-3.4 1.2-1.35 1.4-1.49.9-.71h1.7l1.25 1.86-.56 1.92-1.75 2.22-1.45 1.88-2.08 2.8-1.3 2.24.12.18.31-.03 4.7-1 2.54-.46 3.03-.52 1.37.64.15.65-.54 1.33-3.24.8-3.8.76-5.66 1.34-.07.05.08.1 2.55.24 1.09.06h2.67l4.97.37 1.3.86.78 1.05-.13.8-2 1.02-2.7-.64-6.3-1.5-2.16-.54h-.3v.18l1.8 1.76 3.3 2.98 4.13 3.84.21.95-.53.75-.56-.08-3.63-2.73-1.4-1.23-3.17-2.67h-.21v.28l.73 1.07 3.86 5.8.2 1.78-.28.58-1 .35-1.1-.2-2.26-3.17-2.33-3.57-1.88-3.2-.23.13-1.11 11.95-.52.61-1.2.46-1-.76-.53-1.23.53-2.43.64-3.17.52-2.52.47-3.13.28-1.04-.02-.07-.23.03-2.36 3.24-3.59 4.85-2.84 3.04-.68.27-1.18-.61.11-1.09.66-.97 3.93-5 2.37-3.1 1.53-1.79-.01-.26h-.09l-10.44 6.78-1.86.24-.8-.75.1-1.23.38-.4 3.14-2.16z" fill="currentColor"/>
  </symbol>

  <symbol id="icon-gemini" viewBox="0 0 24 24">
    <path d="M11.9961 24C12.1818 17.5091 17.2917 12.1818 24 11.9961C17.2917 11.8105 12.1818 6.49132 11.9961 0C11.8105 6.49132 6.69229 11.8105 0 11.9961C6.69229 12.1818 11.8105 17.5091 11.9961 24Z" fill="currentColor"/>
  </symbol>

  <symbol id="icon-github" viewBox="0 0 98 96">
    <path fill-rule="evenodd" clip-rule="evenodd" d="M48.854 0C21.839 0 0 22 0 49.217c0 21.756 13.993 40.172 33.405 46.69 2.427.49 3.316-1.059 3.316-2.362 0-1.141-.08-5.052-.08-9.127-13.59 2.934-16.42-5.867-16.42-5.867-2.184-5.704-5.42-7.17-5.42-7.17-4.448-3.015.324-3.015.324-3.015 4.934.326 7.523 5.052 7.523 5.052 4.367 7.496 11.404 5.378 14.235 4.074.404-3.178 1.699-5.378 3.074-6.6-10.839-1.141-22.243-5.378-22.243-24.283 0-5.378 1.94-9.778 5.014-13.2-.485-1.222-2.184-6.275.486-13.038 0 0 4.125-1.304 13.426 5.052a46.97 46.97 0 0 1 12.214-1.63c4.125 0 8.33.571 12.213 1.63 9.302-6.356 13.427-5.052 13.427-5.052 2.67 6.763.97 11.816.485 13.038 3.155 3.422 5.015 7.822 5.015 13.2 0 18.905-11.404 23.06-22.324 24.283 1.78 1.548 3.316 4.481 3.316 9.126 0 6.6-.08 11.897-.08 13.526 0 1.304.89 2.853 3.316 2.364 19.412-6.52 33.405-24.935 33.405-46.691C97.707 22 75.788 0 48.854 0z" fill="currentColor"/>
  </symbol>

</svg>
